<svg id="Layer_1" data-name="Layer 1" xmlns="http://www.w3.org/2000/svg" viewBox="0 0 1080 1080"><path d="M632.17,470.12c0,45.26-32.17,84.43-76.56,92-28.4,4.82-54.14-2.32-76-21.37-23.32-20.29-34.06-46.42-31.55-77,2.7-32.95,18.89-58.35,48.23-73.94,31.9-16.95,63.64-15.15,94.35,3.93a22.51,22.51,0,0,1,2.07,1.44c3.48,2.74,4.13,5.67,2,8.7-1.88,2.63-5.37,3.13-8.68,1-5-3.2-9.94-6.31-15.47-8.41-29-11-56.28-7.95-80.66,11.59-17.29,13.86-27.15,32.4-29.86,54.58-2.68,21.81,3.36,41.11,16.71,58.3.52.67,1.09,1.29,1.61,2,1.73,2.17,3.05,2.3,4.35-.52a77.42,77.42,0,0,1,9.86-15.47,19.62,19.62,0,0,1,6.33-5.24c3.11-1.64,6-1.19,7.7,1.32,1.8,2.67,1.26,5.28-.75,7.6-2.36,2.72-4.91,5.28-7.16,8.08a38,38,0,0,0-6.94,12.13c-.9,2.79-.19,4.73,2.26,6.47,26.74,19,65.11,19,91.69.08,2.91-2.08,3.49-4,2.05-7.22-9.17-20.35-24.82-31.42-47.07-32.28-19.65-.76-34.07-13.41-35-33-1-20.44,12.88-35.82,33.09-36.36,27.69-.74,44.61,27.48,31.26,51.77A24.16,24.16,0,0,1,564.7,487c-2.3,2-2.28,3.06.73,4.37a62.38,62.38,0,0,1,28.22,24.32c1.29,2,2.35,4.19,3.46,6.32,1.72,3.27,2.25,3.35,4.65.46A78.54,78.54,0,0,0,619,485.61c3.79-21.06-.24-40.59-11.65-58.64-.58-.91-1.24-1.78-1.75-2.73-1.65-3.07-1.08-6.33,1.36-8.09,2.71-2,5.92-1.56,8.25,1.43A78,78,0,0,1,625.5,435.7C630.32,447.34,632.18,457.16,632.17,470.12Zm-114.64-7.18c0,12.85,9.86,22.84,22.45,22.77s22.32-10,22.3-22.92A22.48,22.48,0,0,0,539.83,440C527.38,440,517.53,450.16,517.53,462.94Z"/><path d="M540.23,580.51A14.46,14.46,0,0,1,553.06,589c3,5.89,6,11.77,8.8,17.75a6.62,6.62,0,0,0,5.73,4.14c6.42.82,12.8,1.86,19.2,2.81,6,.9,10.21,4.07,12.16,9.86s.5,11-3.73,15.22c-4.73,4.77-9.59,9.41-14.52,14a5.75,5.75,0,0,0-2,6c1.31,6.47,2.23,13,3.39,19.52,1,5.66-.37,10.56-4.73,14.32s-9.62,4.49-15.13,2.19c-6.55-2.74-12.65-6.34-18.79-9.84-2.34-1.33-4.19-1.48-6.61-.11-5.74,3.25-11.66,6.17-17.5,9.23-5.63,3-11.15,2.81-16.24-1s-6.4-9-5.34-15.08,2-12.34,3.24-18.45c.62-3,0-5.18-2.32-7.29-4.66-4.14-9.08-8.55-13.54-12.9s-6.24-9.38-4.42-15.4c1.88-6.21,6.41-9.33,12.63-10.24,6.4-.95,12.79-2,19.21-2.78a5.88,5.88,0,0,0,5.17-3.71c2.84-6.09,5.91-12.08,8.94-18.08C529.49,583.57,534,580.64,540.23,580.51Zm30.25,100.63c-.07-.48-.15-.95-.22-1.43-1.32-7.82-2.47-15.67-4-23.44a8.58,8.58,0,0,1,2.86-8.69c5.6-5.26,11.09-10.64,16.58-16,1.18-1.15,2.66-2.35,2-4.3-.62-1.8-2.37-1.79-3.91-2-7.71-1.14-15.4-2.39-23.13-3.38a8.53,8.53,0,0,1-7.14-5.24c-3.39-7-6.91-14-10.4-21-.69-1.39-1.28-3-3.16-3.07s-2.5,1.64-3.19,3c-3.55,7.1-7.1,14.19-10.58,21.31a8.27,8.27,0,0,1-6.95,4.93c-7.61,1-15.19,2.2-22.78,3.35-1.62.25-3.58.07-4.29,2-.76,2.11.89,3.36,2.14,4.59q8.25,8.06,16.59,16a8.16,8.16,0,0,1,2.65,8.09c-1.48,7.79-2.67,15.63-4,23.45-.28,1.58-.61,3.16.83,4.32s3,.1,4.31-.59c6.4-3.29,12.9-6.42,19.11-10.06,4.35-2.56,8.11-2.43,12.42.06,6.44,3.71,13.12,7,19.76,10.37C568.64,684.78,570.4,683.78,570.48,681.14Z"/><path d="M621.9,687.56c.62-3.78,1.34-8.89,2.35-13.94a5.15,5.15,0,0,0-1.67-5.43c-3.19-2.91-6.18-6-9.33-9-3.85-3.62-5.31-8.05-3.93-13.08a11.63,11.63,0,0,1,9.65-8.66c4.59-.86,9.22-1.52,13.86-2.07a5.67,5.67,0,0,0,5-3.5c1.88-4,3.88-8,5.91-11.95,2.37-4.63,6.08-7.53,11.39-7.49s9,2.91,11.38,7.54c1.86,3.63,3.8,7.24,5.4,11a6.58,6.58,0,0,0,6.17,4.5,88.41,88.41,0,0,1,13.83,2.15c9.39,2.32,12.49,13.44,5.88,20.52a23,23,0,0,1-3.58,3.53c-7.85,5.36-10,12.35-6.76,21.3a18.33,18.33,0,0,1,.9,7.11,12,12,0,0,1-16,11.1,72.42,72.42,0,0,1-13.79-6.94c-2.3-1.39-4.26-1.58-6.66-.19a134.55,134.55,0,0,1-12.41,6.52C630.52,704.6,621.8,698.72,621.9,687.56Zm12,.88c-.28,1.95,1.22,1,2.39.42,4.57-2.38,9.21-4.66,13.66-7.25a9.39,9.39,0,0,1,10.16-.07c3.86,2.18,7.8,4.23,11.76,6.23,1.21.6,2.6,2.19,3.84,1.11,1.06-.93.19-2.74,0-4.13-.75-4.5-1.53-9-2.38-13.47a8.12,8.12,0,0,1,2.55-8.13c3.79-3.5,7.38-7.22,11-10.88.73-.73,2.15-1.38,1.78-2.47s-2-1-3.15-1.18c-4.85-.76-9.71-1.56-14.58-2.1-3.63-.41-5.85-2.29-7.35-5.51-2.18-4.68-4.55-9.27-6.87-13.88-.36-.72-.55-1.77-1.57-1.76s-1.2,1.07-1.56,1.78c-2.37,4.72-4.77,9.43-7,14.2a8.21,8.21,0,0,1-6.84,5.1c-5.11.63-10.21,1.41-15.29,2.21-1,.16-2.44,0-2.77,1.19-.27,1,.92,1.57,1.57,2.23q5.72,5.73,11.5,11.41a7.37,7.37,0,0,1,2.23,7.18C635.79,676.33,634.92,682,633.85,688.44Z"/><path d="M470.82,650.78a11.13,11.13,0,0,1-3.54,7.4c-3.43,3.36-6.78,6.81-10.24,10.13a5,5,0,0,0-1.65,5.13c.88,4.11,1.52,8.27,2.2,12.42.87,5.3.14,10.16-4.55,13.53-4.87,3.51-9.86,2.93-14.86.08-3.44-2-7.05-3.63-10.47-5.61a5.5,5.5,0,0,0-6,0c-3.86,2.19-7.81,4.22-11.76,6.25-4.4,2.26-8.82,2.38-12.91-.64-4.33-3.2-6.14-7.5-5-12.95.81-4,1.27-8.08,2.17-12.05a6.42,6.42,0,0,0-2.17-6.74c-3.16-2.94-6.2-6-9.19-9.14-3.37-3.52-5-7.59-3.49-12.5s5-7.78,10.07-8.58c4.5-.71,9-1.55,13.51-2a5.43,5.43,0,0,0,4.87-3.53c1.93-4.14,4.09-8.17,6.06-12.28A11.76,11.76,0,0,1,425,612.6c4.75,0,8.45,2.58,10.73,6.8S440,627.74,442,632a5.6,5.6,0,0,0,4.92,3.53c4.76.51,9.51,1.22,14.22,2.14C467,638.78,470.77,643.53,470.82,650.78Zm-67.26,36.78c-.4,2.89,1.08,2.29,2.5,1.55,4.89-2.54,9.79-5.08,14.64-7.7a8.37,8.37,0,0,1,8.83.21c4.56,2.63,9.3,5,14,7.43.72.37,1.47,1.06,2.28.32.61-.55.29-1.35.17-2-.89-5.44-1.62-10.93-2.76-16.32a7.86,7.86,0,0,1,2.63-8c3.82-3.64,7.5-7.42,11.23-11.16.57-.57,1.52-1.08,1.31-2-.27-1.16-1.49-1.07-2.38-1.21-5.09-.8-10.17-1.73-15.28-2.22a8.38,8.38,0,0,1-7.41-5.35c-2.16-4.69-4.43-9.32-6.68-14-.36-.75-.66-1.72-1.58-1.83-1.21-.15-1.49,1-1.9,1.84-2.38,4.72-4.77,9.43-7.05,14.19a8.24,8.24,0,0,1-7.2,5.09c-5.24.51-10.44,1.41-15.65,2.15-.83.12-1.83.14-2.16,1s.57,1.5,1.14,2.07c4,4,8,8,12,11.93a7.37,7.37,0,0,1,2.22,7.18C405.34,676.37,404.48,682.06,403.56,687.56Z"/></svg>