<svg id="Layer_1" data-name="Layer 1" xmlns="http://www.w3.org/2000/svg" viewBox="0 0 841.89 595.28"><defs><style>.cls-1{fill:#ed1c24;}.cls-2{fill:#e6e7e8;}.cls-3,.cls-5{fill:none;stroke:#000;}.cls-3,.cls-4,.cls-5{stroke-miterlimit:10;}.cls-4{stroke:#fff;}.cls-5{stroke-width:2px;}.cls-6{font-size:45.95px;font-family:Bluetea;}</style></defs><path class="cls-1" d="M274.43,388.79a2,2,0,0,0,1.58-1.91h0l-4,0,0-.86c.14-3.5,1.09-17.5,7.17-35.46,6.36-18.81,19.81-45.6,47.74-66.4a141.67,141.67,0,0,1,64.32-26.53,138.82,138.82,0,0,1,69.07,7.68A143.55,143.55,0,0,1,500.12,289l-6.21.06c-11.08-9.34-21.26-14.76-35-20-43.41-16.6-91.85-9.75-129.57,18.33-46.22,34.41-52.41,86.13-53.21,97.35,2.33-.09,6.41-.12,13.76-.16,9.29-.06,22.78-.09,40.12-.08,28,0,66.08.11,113.17.29l0,4C300.52,388.2,276.22,388.54,274.43,388.79Z"/><path class="cls-1" d="M443.17,406.42H259.7l.18-2.17.5-5.93c.13-1.49.26-3,.37-4.08.2-2.18.35-3.74,2.27-3.67l1.49.07H443.17v4H264.73c-.18,1.9-.45,5-.68,7.78H443.17Z"/><path class="cls-1" d="M437.64,258.34l-2.65-.76c-16.89-4.83-51.68-.34-52-.3l-2.76.36.54-2.73a26.32,26.32,0,0,1,11.6-17.45,30.84,30.84,0,0,1,32.06-1.08c12.55,6.92,13.12,18.7,13.14,19.2Zm-24.84-7A103.32,103.32,0,0,1,433.07,253a21,21,0,0,0-10.6-13.11,26.86,26.86,0,0,0-27.91.91A22.26,22.26,0,0,0,385.35,253,258.58,258.58,0,0,1,412.8,251.33Z"/><path class="cls-1" d="M324.78,301.58l3.64-3.4a6.28,6.28,0,0,1,6.91-1.22,5.34,5.34,0,0,1,3,3.56,6.28,6.28,0,0,1-1.59,6L333.42,310a6.36,6.36,0,0,1-4.07,2c-2.87.22-7-.45-6.58-6.23A6.31,6.31,0,0,1,324.78,301.58Z"/><path class="cls-1" d="M316,315.13c2.1.52,4.16,1.77,4.31,4.7a6.71,6.71,0,0,1-1.43,4.38c-3.66,4.83-16.24,22.49-22.09,44.49a7,7,0,0,1-2.36,3.72c-2.23,1.78-6,3.28-9-3.23a7.14,7.14,0,0,1-.4-4.92c2.09-7.43,9.62-31.2,24.06-46.95A7.11,7.11,0,0,1,316,315.13Z"/><path class="cls-2" d="M425.78,46.53s0,29.18-36.2,62.86a84.53,84.53,0,0,0-20.51,28.86c-9,21.26-12.17,52.8,30.83,74.3,0,0-49-26.68-16.57-80a96.43,96.43,0,0,1,9.45-12.84C402.55,108.35,431.48,72.18,425.78,46.53Z"/><path class="cls-2" d="M432.62,42.62s18.55,42-22.95,88.38c0,0-20,22-5.38,36.63,0,0-6.31-13.9,7.25-26a69.18,69.18,0,0,0,8.61-9.09c7.75-10,21.64-29.71,22-42.92.07-2.69.17-5.37.5-8C443.7,73.25,444.26,55.36,432.62,42.62Z"/><path class="cls-2" d="M385.25,155.91s4.26,33.61,31.43,44c.69.26,1.39.48,2.09.71,4.3,1.38,24.17,8.84,20.68,27.59,0,0,0-10.06-22.35-19.42a53.3,53.3,0,0,1-15.63-9.84C392.86,191,383,177,385.25,155.91Z"/><path class="cls-2" d="M423.83,147.12s-6.13,17.43,14,31.93c.57.41,1.15.79,1.75,1.17,4.25,2.72,28.3,19.91,8.65,48.94,0,0,7.82-30.28-13.18-40C435.06,189.11,407.71,175.93,423.83,147.12Z"/><rect class="cls-3" x="443.17" y="289.48" width="114.35" height="155.12"/><polygon class="cls-4" points="461.56 420.68 463.21 415.32 466.42 419.9 471.99 419.83 468.66 424.33 470.45 429.65 465.18 427.85 460.71 431.21 460.79 425.59 456.24 422.35 461.56 420.68"/><polygon class="cls-4" points="461.56 394.93 463.21 389.57 466.42 394.16 471.99 394.08 468.66 398.59 470.45 403.9 465.18 402.1 460.71 405.46 460.79 399.84 456.24 396.6 461.56 394.93"/><polygon class="cls-4" points="461.56 365.96 463.21 360.6 466.42 365.19 471.99 365.11 468.66 369.62 470.45 374.94 465.18 373.13 460.71 376.49 460.79 370.87 456.24 367.63 461.56 365.96"/><polygon class="cls-4" points="461.56 337.25 463.21 331.88 466.42 336.47 471.99 336.4 468.66 340.9 470.45 346.22 465.18 344.42 460.71 347.78 460.79 342.16 456.24 338.92 461.56 337.25"/><polygon class="cls-4" points="461.56 306.35 463.21 300.99 466.42 305.57 471.99 305.5 468.66 310 470.45 315.32 465.18 313.52 460.71 316.88 460.79 311.26 456.24 308.02 461.56 306.35"/><line class="cls-5" x1="486.93" y1="310.48" x2="544.45" y2="310.48"/><line class="cls-5" x1="486.93" y1="340.85" x2="544.45" y2="340.85"/><line class="cls-5" x1="486.93" y1="369.87" x2="544.45" y2="369.87"/><line class="cls-5" x1="486.93" y1="399.56" x2="544.45" y2="399.56"/><line class="cls-5" x1="486.93" y1="428.24" x2="544.45" y2="428.24"/><text class="cls-6" transform="translate(260.21 507.82)">FOOD GUIDE</text></svg>